<?xml version="1.0" encoding="us-ascii" standalone="no"?><svg xmlns="http://www.w3.org/2000/svg" xmlns:xlink="http://www.w3.org/1999/xlink" contentStyleType="text/css" height="252px" preserveAspectRatio="none" style="width:586px;height:252px;background:#FFFFFF;" version="1.1" viewBox="0 0 586 252" width="586px" zoomAndPan="magnify"><defs/><g><!--class Matriz--><g id="elem_Matriz"><rect codeLine="1" fill="#F1F1F1" height="96.8906" id="Matriz" rx="2.5" ry="2.5" style="stroke:#181818;stroke-width:0.5;" width="280" x="118.5" y="7"/><ellipse cx="231.75" cy="23" fill="#ADD1B2" rx="11" ry="11" style="stroke:#181818;stroke-width:1.0;"/><path d="M234.0938,18.6719 C233.1563,18.2344 232.5625,18.0938 231.6875,18.0938 C229.0625,18.0938 227.0625,20.1719 227.0625,22.8906 L227.0625,24.0156 C227.0625,26.5938 229.1719,28.4844 232.0625,28.4844 C233.2813,28.4844 234.4375,28.1875 235.1875,27.6406 C235.7656,27.2344 236.0938,26.7813 236.0938,26.3906 C236.0938,25.9375 235.7031,25.5469 235.2344,25.5469 C235.0156,25.5469 234.8125,25.625 234.625,25.8125 C234.1719,26.2969 234.1719,26.2969 233.9844,26.3906 C233.5625,26.6563 232.875,26.7813 232.1094,26.7813 C230.0625,26.7813 228.7656,25.6875 228.7656,23.9844 L228.7656,22.8906 C228.7656,21.1094 230.0156,19.7969 231.75,19.7969 C232.3281,19.7969 232.9375,19.9531 233.4063,20.2031 C233.8906,20.4844 234.0625,20.7031 234.1563,21.1094 C234.2188,21.5156 234.25,21.6406 234.3906,21.7656 C234.5313,21.9063 234.7656,22.0156 234.9844,22.0156 C235.25,22.0156 235.5156,21.875 235.6875,21.6563 C235.7969,21.5 235.8281,21.3125 235.8281,20.8906 L235.8281,19.4688 C235.8281,19.0313 235.8125,18.9063 235.7188,18.75 C235.5625,18.4844 235.2813,18.3438 234.9844,18.3438 C234.6875,18.3438 234.4844,18.4375 234.2656,18.75 L234.0938,18.6719 Z " fill="#000000"/><text fill="#000000" font-family="sans-serif" font-size="14" lengthAdjust="spacing" textLength="45" x="252.25" y="27.8467">Matriz</text><line style="stroke:#181818;stroke-width:0.5;" x1="119.5" x2="397.5" y1="39" y2="39"/><rect fill="none" height="6" style="stroke:#C82930;stroke-width:1.0;" width="6" x="126.5" y="49.6484"/><text fill="#000000" font-family="sans-serif" font-size="14" lengthAdjust="spacing" textLength="178" x="138.5" y="55.9951">elementos: List[List[int]]</text><line style="stroke:#181818;stroke-width:0.5;" x1="119.5" x2="397.5" y1="63.2969" y2="63.2969"/><ellipse cx="129.5" cy="76.9453" fill="#84BE84" rx="3" ry="3" style="stroke:#038048;stroke-width:1.0;"/><text fill="#000000" font-family="sans-serif" font-size="14" lengthAdjust="spacing" textLength="240" x="138.5" y="80.292">__init__(elementos: List[List[int]])</text><ellipse cx="129.5" cy="93.2422" fill="#84BE84" rx="3" ry="3" style="stroke:#038048;stroke-width:1.0;"/><text fill="#000000" font-family="sans-serif" font-size="14" lengthAdjust="spacing" textLength="254" x="138.5" y="96.5889">obtener_elementos(): List[List[int]]</text></g><!--class MatrizPrinter--><g id="elem_MatrizPrinter"><rect codeLine="7" fill="#F1F1F1" height="64.2969" id="MatrizPrinter" rx="2.5" ry="2.5" style="stroke:#181818;stroke-width:0.5;" width="199" x="7" y="181"/><ellipse cx="54.75" cy="197" fill="#ADD1B2" rx="11" ry="11" style="stroke:#181818;stroke-width:1.0;"/><path d="M57.0938,192.6719 C56.1563,192.2344 55.5625,192.0938 54.6875,192.0938 C52.0625,192.0938 50.0625,194.1719 50.0625,196.8906 L50.0625,198.0156 C50.0625,200.5938 52.1719,202.4844 55.0625,202.4844 C56.2813,202.4844 57.4375,202.1875 58.1875,201.6406 C58.7656,201.2344 59.0938,200.7813 59.0938,200.3906 C59.0938,199.9375 58.7031,199.5469 58.2344,199.5469 C58.0156,199.5469 57.8125,199.625 57.625,199.8125 C57.1719,200.2969 57.1719,200.2969 56.9844,200.3906 C56.5625,200.6563 55.875,200.7813 55.1094,200.7813 C53.0625,200.7813 51.7656,199.6875 51.7656,197.9844 L51.7656,196.8906 C51.7656,195.1094 53.0156,193.7969 54.75,193.7969 C55.3281,193.7969 55.9375,193.9531 56.4063,194.2031 C56.8906,194.4844 57.0625,194.7031 57.1563,195.1094 C57.2188,195.5156 57.25,195.6406 57.3906,195.7656 C57.5313,195.9063 57.7656,196.0156 57.9844,196.0156 C58.25,196.0156 58.5156,195.875 58.6875,195.6563 C58.7969,195.5 58.8281,195.3125 58.8281,194.8906 L58.8281,193.4688 C58.8281,193.0313 58.8125,192.9063 58.7188,192.75 C58.5625,192.4844 58.2813,192.3438 57.9844,192.3438 C57.6875,192.3438 57.4844,192.4375 57.2656,192.75 L57.0938,192.6719 Z " fill="#000000"/><text fill="#000000" font-family="sans-serif" font-size="14" lengthAdjust="spacing" textLength="95" x="75.25" y="201.8467">MatrizPrinter</text><line style="stroke:#181818;stroke-width:0.5;" x1="8" x2="205" y1="213" y2="213"/><line style="stroke:#181818;stroke-width:0.5;" x1="8" x2="205" y1="221" y2="221"/><ellipse cx="18" cy="234.6484" fill="#84BE84" rx="3" ry="3" style="stroke:#038048;stroke-width:1.0;"/><text fill="#000000" font-family="sans-serif" font-size="14" lengthAdjust="spacing" textLength="173" x="27" y="237.9951">imprimir(matriz: Matriz)</text></g><!--class MatrizTranspuesta--><g id="elem_MatrizTranspuesta"><rect codeLine="11" fill="#F1F1F1" height="64.2969" id="MatrizTranspuesta" rx="2.5" ry="2.5" style="stroke:#181818;stroke-width:0.5;" width="338" x="241.5" y="181"/><ellipse cx="339.75" cy="197" fill="#ADD1B2" rx="11" ry="11" style="stroke:#181818;stroke-width:1.0;"/><path d="M342.0938,192.6719 C341.1563,192.2344 340.5625,192.0938 339.6875,192.0938 C337.0625,192.0938 335.0625,194.1719 335.0625,196.8906 L335.0625,198.0156 C335.0625,200.5938 337.1719,202.4844 340.0625,202.4844 C341.2813,202.4844 342.4375,202.1875 343.1875,201.6406 C343.7656,201.2344 344.0938,200.7813 344.0938,200.3906 C344.0938,199.9375 343.7031,199.5469 343.2344,199.5469 C343.0156,199.5469 342.8125,199.625 342.625,199.8125 C342.1719,200.2969 342.1719,200.2969 341.9844,200.3906 C341.5625,200.6563 340.875,200.7813 340.1094,200.7813 C338.0625,200.7813 336.7656,199.6875 336.7656,197.9844 L336.7656,196.8906 C336.7656,195.1094 338.0156,193.7969 339.75,193.7969 C340.3281,193.7969 340.9375,193.9531 341.4063,194.2031 C341.8906,194.4844 342.0625,194.7031 342.1563,195.1094 C342.2188,195.5156 342.25,195.6406 342.3906,195.7656 C342.5313,195.9063 342.7656,196.0156 342.9844,196.0156 C343.25,196.0156 343.5156,195.875 343.6875,195.6563 C343.7969,195.5 343.8281,195.3125 343.8281,194.8906 L343.8281,193.4688 C343.8281,193.0313 343.8125,192.9063 343.7188,192.75 C343.5625,192.4844 343.2813,192.3438 342.9844,192.3438 C342.6875,192.3438 342.4844,192.4375 342.2656,192.75 L342.0938,192.6719 Z " fill="#000000"/><text fill="#000000" font-family="sans-serif" font-size="14" lengthAdjust="spacing" textLength="133" x="360.25" y="201.8467">MatrizTranspuesta</text><line style="stroke:#181818;stroke-width:0.5;" x1="242.5" x2="578.5" y1="213" y2="213"/><line style="stroke:#181818;stroke-width:0.5;" x1="242.5" x2="578.5" y1="221" y2="221"/><ellipse cx="252.5" cy="234.6484" fill="#84BE84" rx="3" ry="3" style="stroke:#038048;stroke-width:1.0;"/><text fill="#000000" font-family="sans-serif" font-size="14" lengthAdjust="spacing" textLength="312" x="261.5" y="237.9951">calcular_transpuesta(matriz: Matriz): Matriz</text></g><!--link Matriz to MatrizPrinter--><g id="link_Matriz_MatrizPrinter"><path codeLine="15" d="M212.069,104 C187.624,129.008 158.343,158.9637 136.826,180.9759 " fill="none" id="Matriz-MatrizPrinter" style="stroke:#181818;stroke-width:1.0;"/><text fill="#000000" font-family="sans-serif" font-size="13" lengthAdjust="spacing" textLength="24" x="183.5" y="147.0669">Usa</text></g><!--link Matriz to MatrizTranspuesta--><g id="link_Matriz_MatrizTranspuesta"><path codeLine="16" d="M304.931,104 C329.376,129.008 358.657,158.9637 380.174,180.9759 " fill="none" id="Matriz-MatrizTranspuesta" style="stroke:#181818;stroke-width:1.0;"/><text fill="#000000" font-family="sans-serif" font-size="13" lengthAdjust="spacing" textLength="24" x="349.5" y="147.0669">Usa</text></g><!--SRC=[TP112i9034NtFKMMBQKNw1aKNEXAoX27B08pqvAa6wLtjmvLQukR4F9VVZxn0LNXY2PyXqS1q005YfIirnOEh7RDXPDrtIpNu1mdDkVA_roLmVvcb4ZSXokhlUDK57uLuIJpc2GdgO7Z81nPofZ5Te6gxTPPCEamaXekcnw37mEAiw-qTNatBxVb0KtpcwE5Y-9EN9tBm1C0]--></g></svg>